<?xml version="1.0" encoding="UTF-8" standalone="no"?>
<!DOCTYPE svg PUBLIC "-//W3C//DTD SVG 1.1//EN"
 "http://www.w3.org/Graphics/SVG/1.1/DTD/svg11.dtd">
<!-- Generated by graphviz version 2.43.0 (0)
 -->
<!-- Title: C/vm/bci_vm.h Pages: 1 -->
<svg width="319pt" height="196pt"
 viewBox="0.00 0.00 318.50 196.00" xmlns="http://www.w3.org/2000/svg" xmlns:xlink="http://www.w3.org/1999/xlink">
<g id="graph0" class="graph" transform="scale(1 1) rotate(0) translate(4 192)">
<title>C/vm/bci_vm.h</title>
<polygon fill="white" stroke="transparent" points="-4,4 -4,-192 314.5,-192 314.5,4 -4,4"/>
<!-- Node1 -->
<g id="node1" class="node">
<title>Node1</title>
<g id="a_node1"><a xlink:title="BCI Virtual Machine Implementation.">
<polygon fill="#bfbfbf" stroke="black" points="23,-168.5 23,-187.5 112,-187.5 112,-168.5 23,-168.5"/>
<text text-anchor="middle" x="67.5" y="-175.5" font-family="Helvetica,sans-Serif" font-size="10.00">C/vm/bci_vm.h</text>
</a>
</g>
</g>
<!-- Node2 -->
<g id="node2" class="node">
<title>Node2</title>
<g id="a_node2"><a xlink:href="vm_2c23__compat_8h.html" target="_top" xlink:title="C23 Compat API.">
<polygon fill="white" stroke="black" points="0,-0.5 0,-19.5 85,-19.5 85,-0.5 0,-0.5"/>
<text text-anchor="middle" x="42.5" y="-7.5" font-family="Helvetica,sans-Serif" font-size="10.00">c23_compat.h</text>
</a>
</g>
</g>
<!-- Node1&#45;&gt;Node2 -->
<g id="edge1" class="edge">
<title>Node1&#45;&gt;Node2</title>
<path fill="none" stroke="midnightblue" d="M64.54,-168.49C61.53,-159.52 56.99,-144.94 54.5,-132 47.61,-96.19 44.56,-53.62 43.3,-29.71"/>
<polygon fill="midnightblue" stroke="midnightblue" points="46.79,-29.41 42.81,-19.59 39.79,-29.74 46.79,-29.41"/>
</g>
<!-- Node3 -->
<g id="node3" class="node">
<title>Node3</title>
<g id="a_node3"><a xlink:href="bci__chunk_8h.html" target="_top" xlink:title="Bytecode Chunk Management.">
<polygon fill="white" stroke="black" points="63.5,-112.5 63.5,-131.5 137.5,-131.5 137.5,-112.5 63.5,-112.5"/>
<text text-anchor="middle" x="100.5" y="-119.5" font-family="Helvetica,sans-Serif" font-size="10.00">bci_chunk.h</text>
</a>
</g>
</g>
<!-- Node1&#45;&gt;Node3 -->
<g id="edge2" class="edge">
<title>Node1&#45;&gt;Node3</title>
<path fill="none" stroke="midnightblue" d="M72.95,-168.08C77.51,-160.61 84.17,-149.72 89.79,-140.52"/>
<polygon fill="midnightblue" stroke="midnightblue" points="92.92,-142.11 95.15,-131.75 86.95,-138.46 92.92,-142.11"/>
</g>
<!-- Node3&#45;&gt;Node2 -->
<g id="edge3" class="edge">
<title>Node3&#45;&gt;Node2</title>
<path fill="none" stroke="midnightblue" d="M95.95,-112.37C86.46,-94.38 64.41,-52.55 51.79,-28.63"/>
<polygon fill="midnightblue" stroke="midnightblue" points="54.79,-26.8 47.03,-19.59 48.6,-30.07 54.79,-26.8"/>
</g>
<!-- Node4 -->
<g id="node4" class="node">
<title>Node4</title>
<g id="a_node4"><a xlink:href="vm_2bci__types_8h.html" target="_top" xlink:title="Bci Types API.">
<polygon fill="white" stroke="black" points="101.5,-56.5 101.5,-75.5 173.5,-75.5 173.5,-56.5 101.5,-56.5"/>
<text text-anchor="middle" x="137.5" y="-63.5" font-family="Helvetica,sans-Serif" font-size="10.00">bci_types.h</text>
</a>
</g>
</g>
<!-- Node3&#45;&gt;Node4 -->
<g id="edge4" class="edge">
<title>Node3&#45;&gt;Node4</title>
<path fill="none" stroke="midnightblue" d="M106.61,-112.08C111.78,-104.53 119.35,-93.49 125.69,-84.23"/>
<polygon fill="midnightblue" stroke="midnightblue" points="128.74,-85.98 131.5,-75.75 122.96,-82.02 128.74,-85.98"/>
</g>
<!-- Node4&#45;&gt;Node2 -->
<g id="edge5" class="edge">
<title>Node4&#45;&gt;Node2</title>
<path fill="none" stroke="midnightblue" d="M122.24,-56.32C107.28,-47.82 84.25,-34.73 66.77,-24.8"/>
<polygon fill="midnightblue" stroke="midnightblue" points="68.15,-21.55 57.73,-19.65 64.69,-27.64 68.15,-21.55"/>
</g>
<!-- Node5 -->
<g id="node5" class="node">
<title>Node5</title>
<g id="a_node5"><a xlink:title=" ">
<polygon fill="white" stroke="#bfbfbf" points="103,-0.5 103,-19.5 156,-19.5 156,-0.5 103,-0.5"/>
<text text-anchor="middle" x="129.5" y="-7.5" font-family="Helvetica,sans-Serif" font-size="10.00">stdint.h</text>
</a>
</g>
</g>
<!-- Node4&#45;&gt;Node5 -->
<g id="edge6" class="edge">
<title>Node4&#45;&gt;Node5</title>
<path fill="none" stroke="midnightblue" d="M136.18,-56.08C135.12,-48.93 133.59,-38.64 132.27,-29.69"/>
<polygon fill="midnightblue" stroke="midnightblue" points="135.72,-29.13 130.8,-19.75 128.8,-30.16 135.72,-29.13"/>
</g>
<!-- Node6 -->
<g id="node6" class="node">
<title>Node6</title>
<g id="a_node6"><a xlink:title=" ">
<polygon fill="white" stroke="#bfbfbf" points="174.5,-0.5 174.5,-19.5 236.5,-19.5 236.5,-0.5 174.5,-0.5"/>
<text text-anchor="middle" x="205.5" y="-7.5" font-family="Helvetica,sans-Serif" font-size="10.00">stdbool.h</text>
</a>
</g>
</g>
<!-- Node4&#45;&gt;Node6 -->
<g id="edge7" class="edge">
<title>Node4&#45;&gt;Node6</title>
<path fill="none" stroke="midnightblue" d="M148.43,-56.32C158.67,-48.18 174.22,-35.84 186.5,-26.09"/>
<polygon fill="midnightblue" stroke="midnightblue" points="188.72,-28.79 194.38,-19.83 184.37,-23.31 188.72,-28.79"/>
</g>
<!-- Node7 -->
<g id="node7" class="node">
<title>Node7</title>
<g id="a_node7"><a xlink:title=" ">
<polygon fill="white" stroke="#bfbfbf" points="254.5,-0.5 254.5,-19.5 310.5,-19.5 310.5,-0.5 254.5,-0.5"/>
<text text-anchor="middle" x="282.5" y="-7.5" font-family="Helvetica,sans-Serif" font-size="10.00">stddef.h</text>
</a>
</g>
</g>
<!-- Node4&#45;&gt;Node7 -->
<g id="edge8" class="edge">
<title>Node4&#45;&gt;Node7</title>
<path fill="none" stroke="midnightblue" d="M160.48,-56.44C184.66,-47.44 222.92,-33.19 250.15,-23.05"/>
<polygon fill="midnightblue" stroke="midnightblue" points="251.48,-26.29 259.63,-19.52 249.04,-19.73 251.48,-26.29"/>
</g>
</g>
</svg>
