<?xml version="1.0" encoding="UTF-8" standalone="no"?>
<!DOCTYPE svg PUBLIC "-//W3C//DTD SVG 1.1//EN"
 "http://www.w3.org/Graphics/SVG/1.1/DTD/svg11.dtd">
<!-- Generated by graphviz version 2.43.0 (0)
 -->
<!-- Title: parse_unary Pages: 1 -->
<svg width="363pt" height="104pt"
 viewBox="0.00 0.00 363.00 104.00" xmlns="http://www.w3.org/2000/svg" xmlns:xlink="http://www.w3.org/1999/xlink">
<g id="graph0" class="graph" transform="scale(1 1) rotate(0) translate(4 100)">
<title>parse_unary</title>
<polygon fill="white" stroke="transparent" points="-4,4 -4,-100 359,-100 359,4 -4,4"/>
<!-- Node1 -->
<g id="node1" class="node">
<title>Node1</title>
<g id="a_node1"><a xlink:title=" ">
<polygon fill="#bfbfbf" stroke="black" points="0,-38.5 0,-57.5 77,-57.5 77,-38.5 0,-38.5"/>
<text text-anchor="middle" x="38.5" y="-45.5" font-family="Helvetica,sans-Serif" font-size="10.00">parse_unary</text>
</a>
</g>
</g>
<!-- Node2 -->
<g id="node2" class="node">
<title>Node2</title>
<g id="a_node2"><a xlink:href="bci__parser__extended_8c.html#acdfcda3089817d2d5b8a73eed8f5377c" target="_top" xlink:title=" ">
<polygon fill="white" stroke="black" points="113,-38.5 113,-57.5 218,-57.5 218,-38.5 113,-38.5"/>
<text text-anchor="middle" x="165.5" y="-45.5" font-family="Helvetica,sans-Serif" font-size="10.00">parse_precedence</text>
</a>
</g>
</g>
<!-- Node1&#45;&gt;Node2 -->
<g id="edge1" class="edge">
<title>Node1&#45;&gt;Node2</title>
<path fill="none" stroke="midnightblue" d="M77,-48C85.07,-48 93.8,-48 102.51,-48"/>
<polygon fill="midnightblue" stroke="midnightblue" points="102.69,-51.5 112.69,-48 102.69,-44.5 102.69,-51.5"/>
</g>
<!-- Node3 -->
<g id="node3" class="node">
<title>Node3</title>
<g id="a_node3"><a xlink:href="bci__parser__extended_8c.html#a71dbc0cecd2a71684396b7bca160b841" target="_top" xlink:title=" ">
<polygon fill="white" stroke="black" points="276.5,-76.5 276.5,-95.5 332.5,-95.5 332.5,-76.5 276.5,-76.5"/>
<text text-anchor="middle" x="304.5" y="-83.5" font-family="Helvetica,sans-Serif" font-size="10.00">get_rule</text>
</a>
</g>
</g>
<!-- Node2&#45;&gt;Node3 -->
<g id="edge2" class="edge">
<title>Node2&#45;&gt;Node3</title>
<path fill="none" stroke="midnightblue" d="M201.07,-57.59C221.01,-63.12 246.07,-70.07 266.42,-75.71"/>
<polygon fill="midnightblue" stroke="midnightblue" points="265.71,-79.15 276.28,-78.45 267.58,-72.4 265.71,-79.15"/>
</g>
<!-- Node4 -->
<g id="node4" class="node">
<title>Node4</title>
<g id="a_node4"><a xlink:href="bci__lexer_8c.html#a4e32a256428a9a9332855ad323018cfc" target="_top" xlink:title=" ">
<polygon fill="white" stroke="black" points="254,-38.5 254,-57.5 355,-57.5 355,-38.5 254,-38.5"/>
<text text-anchor="middle" x="304.5" y="-45.5" font-family="Helvetica,sans-Serif" font-size="10.00">lexer_scan_token</text>
</a>
</g>
</g>
<!-- Node2&#45;&gt;Node4 -->
<g id="edge3" class="edge">
<title>Node2&#45;&gt;Node4</title>
<path fill="none" stroke="midnightblue" d="M218.29,-48C226.59,-48 235.23,-48 243.7,-48"/>
<polygon fill="midnightblue" stroke="midnightblue" points="243.9,-51.5 253.9,-48 243.9,-44.5 243.9,-51.5"/>
</g>
<!-- Node5 -->
<g id="node5" class="node">
<title>Node5</title>
<g id="a_node5"><a xlink:href="bci__parser__extended_8c.html#a3fcbb6dc42842f6fa1f52a334734f97b" target="_top" xlink:title=" ">
<polygon fill="white" stroke="black" points="259,-0.5 259,-19.5 350,-19.5 350,-0.5 259,-0.5"/>
<text text-anchor="middle" x="304.5" y="-7.5" font-family="Helvetica,sans-Serif" font-size="10.00">parser_error_at</text>
</a>
</g>
</g>
<!-- Node2&#45;&gt;Node5 -->
<g id="edge4" class="edge">
<title>Node2&#45;&gt;Node5</title>
<path fill="none" stroke="midnightblue" d="M201.07,-38.41C218.68,-33.53 240.28,-27.54 259.1,-22.32"/>
<polygon fill="midnightblue" stroke="midnightblue" points="260.24,-25.63 268.94,-19.59 258.37,-18.89 260.24,-25.63"/>
</g>
</g>
</svg>
