<?xml version="1.0" encoding="UTF-8" standalone="no"?>
<!DOCTYPE svg PUBLIC "-//W3C//DTD SVG 1.1//EN"
 "http://www.w3.org/Graphics/SVG/1.1/DTD/svg11.dtd">
<!-- Generated by graphviz version 2.43.0 (0)
 -->
<!-- Title: C/kernel/device Pages: 1 -->
<svg width="170pt" height="167pt"
 viewBox="0.00 0.00 170.00 167.00" xmlns="http://www.w3.org/2000/svg" xmlns:xlink="http://www.w3.org/1999/xlink">
<g id="graph0" class="graph" transform="scale(1 1) rotate(0) translate(4 163)">
<title>C/kernel/device</title>
<polygon fill="white" stroke="transparent" points="-4,4 -4,-163 166,-163 166,4 -4,4"/>
<g id="clust1" class="cluster">
<title>clusterdir_1502684852a0f39f17ad8abfc62a99c1</title>
<g id="a_clust1"><a xlink:href="dir_1502684852a0f39f17ad8abfc62a99c1.html" target="_top" xlink:title="kernel">
<polygon fill="#edf0f7" stroke="#7f7f7f" stroke-dasharray="5,2" points="8,-8 8,-151 154,-151 154,-8 8,-8"/>
<text text-anchor="middle" x="81" y="-139" font-family="Helvetica,sans-Serif" font-size="10.00">kernel</text>
</a>
</g>
</g>
<!-- dir_a4dfb48dc68755cb81ac54e685b22561 -->
<g id="node1" class="node">
<title>dir_a4dfb48dc68755cb81ac54e685b22561</title>
<g id="a_node1"><a xlink:href="dir_a4dfb48dc68755cb81ac54e685b22561.html" target="_top" xlink:title="backend">
<polygon fill="#a2b4d6" stroke="red" points="73.5,-52 16.5,-52 16.5,-16 73.5,-16 73.5,-52"/>
<text text-anchor="middle" x="45" y="-31.5" font-family="Helvetica,sans-Serif" font-size="10.00">backend</text>
</a>
</g>
</g>
<!-- dir_cf1e6007adb8402d7ff9bb29c2274430 -->
<g id="node2" class="node">
<title>dir_cf1e6007adb8402d7ff9bb29c2274430</title>
<g id="a_node2"><a xlink:href="dir_cf1e6007adb8402d7ff9bb29c2274430.html" target="_top" xlink:title="ham">
<polygon fill="#a2b4d6" stroke="red" points="146,-52 92,-52 92,-16 146,-16 146,-52"/>
<text text-anchor="middle" x="119" y="-31.5" font-family="Helvetica,sans-Serif" font-size="10.00">ham</text>
</a>
</g>
</g>
<!-- dir_acff8c83f652c141e012537952706f80 -->
<g id="node3" class="node">
<title>dir_acff8c83f652c141e012537952706f80</title>
<g id="a_node3"><a xlink:href="dir_acff8c83f652c141e012537952706f80.html" target="_top" xlink:title="device">
<polygon fill="#edf0f7" stroke="#404040" stroke-width="2" points="109,-124 55,-124 55,-88 109,-88 109,-124"/>
<text text-anchor="middle" x="82" y="-103.5" font-family="Helvetica,sans-Serif" font-size="10.00">device</text>
</a>
</g>
</g>
<!-- dir_acff8c83f652c141e012537952706f80&#45;&gt;dir_a4dfb48dc68755cb81ac54e685b22561 -->
<g id="edge1" class="edge">
<title>dir_acff8c83f652c141e012537952706f80&#45;&gt;dir_a4dfb48dc68755cb81ac54e685b22561</title>
<path fill="none" stroke="black" d="M72.85,-87.7C68.6,-79.64 63.44,-69.89 58.73,-60.98"/>
<polygon fill="black" stroke="black" points="61.81,-59.31 54.04,-52.1 55.62,-62.58 61.81,-59.31"/>
<g id="a_edge1&#45;headlabel"><a xlink:href="dir_000012_000003.html" target="_top" xlink:title="2">
<text text-anchor="middle" x="66" y="-58.66" font-family="Helvetica,sans-Serif" font-size="10.00">2</text>
</a>
</g>
</g>
<!-- dir_acff8c83f652c141e012537952706f80&#45;&gt;dir_cf1e6007adb8402d7ff9bb29c2274430 -->
<g id="edge2" class="edge">
<title>dir_acff8c83f652c141e012537952706f80&#45;&gt;dir_cf1e6007adb8402d7ff9bb29c2274430</title>
<path fill="none" stroke="black" d="M91.15,-87.7C95.4,-79.64 100.56,-69.89 105.27,-60.98"/>
<polygon fill="black" stroke="black" points="108.38,-62.58 109.96,-52.1 102.19,-59.31 108.38,-62.58"/>
<g id="a_edge2&#45;headlabel"><a xlink:href="dir_000012_000022.html" target="_top" xlink:title="1">
<text text-anchor="middle" x="109.21" y="-64.59" font-family="Helvetica,sans-Serif" font-size="10.00">1</text>
</a>
</g>
</g>
</g>
</svg>
