<?xml version="1.0" encoding="UTF-8" standalone="no"?>
<!DOCTYPE svg PUBLIC "-//W3C//DTD SVG 1.1//EN"
 "http://www.w3.org/Graphics/SVG/1.1/DTD/svg11.dtd">
<!-- Generated by graphviz version 2.43.0 (0)
 -->
<!-- Title: C/kernel/backend/gpu/gpu_backend_opencl.h Pages: 1 -->
<svg width="541pt" height="263pt"
 viewBox="0.00 0.00 540.50 263.00" xmlns="http://www.w3.org/2000/svg" xmlns:xlink="http://www.w3.org/1999/xlink">
<g id="graph0" class="graph" transform="scale(1 1) rotate(0) translate(4 259)">
<title>C/kernel/backend/gpu/gpu_backend_opencl.h</title>
<polygon fill="white" stroke="transparent" points="-4,4 -4,-259 536.5,-259 536.5,4 -4,4"/>
<!-- Node1 -->
<g id="node1" class="node">
<title>Node1</title>
<g id="a_node1"><a xlink:title="Backend Code Generation.">
<polygon fill="#bfbfbf" stroke="black" points="195.5,-224.5 195.5,-254.5 325.5,-254.5 325.5,-224.5 195.5,-224.5"/>
<text text-anchor="start" x="203.5" y="-242.5" font-family="Helvetica,sans-Serif" font-size="10.00">C/kernel/backend/gpu</text>
<text text-anchor="middle" x="260.5" y="-231.5" font-family="Helvetica,sans-Serif" font-size="10.00">/gpu_backend_opencl.h</text>
</a>
</g>
</g>
<!-- Node2 -->
<g id="node2" class="node">
<title>Node2</title>
<g id="a_node2"><a xlink:title=" ">
<polygon fill="white" stroke="#bfbfbf" points="0,-168.5 0,-187.5 103,-187.5 103,-168.5 0,-168.5"/>
<text text-anchor="middle" x="51.5" y="-175.5" font-family="Helvetica,sans-Serif" font-size="10.00">../../c23_compat.h</text>
</a>
</g>
</g>
<!-- Node1&#45;&gt;Node2 -->
<g id="edge1" class="edge">
<title>Node1&#45;&gt;Node2</title>
<path fill="none" stroke="midnightblue" d="M211.23,-224.47C174.55,-214.03 125.12,-199.96 91.01,-190.25"/>
<polygon fill="midnightblue" stroke="midnightblue" points="91.96,-186.88 81.38,-187.51 90.04,-193.61 91.96,-186.88"/>
</g>
<!-- Node3 -->
<g id="node3" class="node">
<title>Node3</title>
<g id="a_node3"><a xlink:href="kernel_2graph_2graph_8h.html" target="_top" xlink:title="Graph Optimization and Execution.">
<polygon fill="white" stroke="black" points="326.5,-168.5 326.5,-187.5 428.5,-187.5 428.5,-168.5 326.5,-168.5"/>
<text text-anchor="middle" x="377.5" y="-175.5" font-family="Helvetica,sans-Serif" font-size="10.00">../../graph/graph.h</text>
</a>
</g>
</g>
<!-- Node1&#45;&gt;Node3 -->
<g id="edge2" class="edge">
<title>Node1&#45;&gt;Node3</title>
<path fill="none" stroke="midnightblue" d="M288.23,-224.4C307.33,-214.68 332.56,-201.86 351.32,-192.31"/>
<polygon fill="midnightblue" stroke="midnightblue" points="353.15,-195.31 360.48,-187.66 349.98,-189.07 353.15,-195.31"/>
</g>
<!-- Node5 -->
<g id="node5" class="node">
<title>Node5</title>
<g id="a_node5"><a xlink:title=" ">
<polygon fill="white" stroke="#bfbfbf" points="287,-112.5 287,-131.5 340,-131.5 340,-112.5 287,-112.5"/>
<text text-anchor="middle" x="313.5" y="-119.5" font-family="Helvetica,sans-Serif" font-size="10.00">stdint.h</text>
</a>
</g>
</g>
<!-- Node1&#45;&gt;Node5 -->
<g id="edge17" class="edge">
<title>Node1&#45;&gt;Node5</title>
<path fill="none" stroke="midnightblue" d="M267,-224.34C276.63,-203.34 294.71,-163.96 305.26,-140.96"/>
<polygon fill="midnightblue" stroke="midnightblue" points="308.53,-142.22 309.52,-131.67 302.17,-139.3 308.53,-142.22"/>
</g>
<!-- Node8 -->
<g id="node8" class="node">
<title>Node8</title>
<g id="a_node8"><a xlink:href="ham_8h.html" target="_top" xlink:title="Ham API.">
<polygon fill="white" stroke="black" points="131.5,-112.5 131.5,-131.5 221.5,-131.5 221.5,-112.5 131.5,-112.5"/>
<text text-anchor="middle" x="176.5" y="-119.5" font-family="Helvetica,sans-Serif" font-size="10.00">../../ham/ham.h</text>
</a>
</g>
</g>
<!-- Node1&#45;&gt;Node8 -->
<g id="edge7" class="edge">
<title>Node1&#45;&gt;Node8</title>
<path fill="none" stroke="midnightblue" d="M259.54,-224.31C257.91,-209.14 253.48,-184.99 241.5,-168 232.14,-154.73 217.56,-144.12 204.57,-136.54"/>
<polygon fill="midnightblue" stroke="midnightblue" points="205.94,-133.3 195.49,-131.56 202.58,-139.44 205.94,-133.3"/>
</g>
<!-- Node11 -->
<g id="node11" class="node">
<title>Node11</title>
<g id="a_node11"><a xlink:href="device_8h.html" target="_top" xlink:title="Device Management.">
<polygon fill="white" stroke="black" points="121,-168.5 121,-187.5 232,-187.5 232,-168.5 121,-168.5"/>
<text text-anchor="middle" x="176.5" y="-175.5" font-family="Helvetica,sans-Serif" font-size="10.00">../../device/device.h</text>
</a>
</g>
</g>
<!-- Node1&#45;&gt;Node11 -->
<g id="edge13" class="edge">
<title>Node1&#45;&gt;Node11</title>
<path fill="none" stroke="midnightblue" d="M240.59,-224.4C227.51,-215.13 210.42,-203.03 197.18,-193.65"/>
<polygon fill="midnightblue" stroke="midnightblue" points="198.91,-190.58 188.72,-187.66 194.86,-196.29 198.91,-190.58"/>
</g>
<!-- Node4 -->
<g id="node4" class="node">
<title>Node4</title>
<g id="a_node4"><a xlink:href="c23__compat_8h.html" target="_top" xlink:title="C23 Compat API.">
<polygon fill="white" stroke="black" points="197,-0.5 197,-19.5 282,-19.5 282,-0.5 197,-0.5"/>
<text text-anchor="middle" x="239.5" y="-7.5" font-family="Helvetica,sans-Serif" font-size="10.00">c23_compat.h</text>
</a>
</g>
</g>
<!-- Node3&#45;&gt;Node4 -->
<g id="edge3" class="edge">
<title>Node3&#45;&gt;Node4</title>
<path fill="none" stroke="midnightblue" d="M375.08,-168.42C371.14,-155.39 362.45,-130.23 349.5,-112 324.1,-76.23 284.22,-43.62 260.1,-25.62"/>
<polygon fill="midnightblue" stroke="midnightblue" points="262.11,-22.76 251.98,-19.67 257.98,-28.4 262.11,-22.76"/>
</g>
<!-- Node3&#45;&gt;Node5 -->
<g id="edge4" class="edge">
<title>Node3&#45;&gt;Node5</title>
<path fill="none" stroke="midnightblue" d="M367.22,-168.32C357.66,-160.26 343.22,-148.08 331.72,-138.37"/>
<polygon fill="midnightblue" stroke="midnightblue" points="333.87,-135.61 323.97,-131.83 329.36,-140.96 333.87,-135.61"/>
</g>
<!-- Node6 -->
<g id="node6" class="node">
<title>Node6</title>
<g id="a_node6"><a xlink:title=" ">
<polygon fill="white" stroke="#bfbfbf" points="396.5,-112.5 396.5,-131.5 452.5,-131.5 452.5,-112.5 396.5,-112.5"/>
<text text-anchor="middle" x="424.5" y="-119.5" font-family="Helvetica,sans-Serif" font-size="10.00">stddef.h</text>
</a>
</g>
</g>
<!-- Node3&#45;&gt;Node6 -->
<g id="edge5" class="edge">
<title>Node3&#45;&gt;Node6</title>
<path fill="none" stroke="midnightblue" d="M385.26,-168.08C392.04,-160.3 402.04,-148.8 410.26,-139.37"/>
<polygon fill="midnightblue" stroke="midnightblue" points="412.96,-141.59 416.88,-131.75 407.68,-137 412.96,-141.59"/>
</g>
<!-- Node7 -->
<g id="node7" class="node">
<title>Node7</title>
<g id="a_node7"><a xlink:title=" ">
<polygon fill="white" stroke="#bfbfbf" points="470.5,-112.5 470.5,-131.5 532.5,-131.5 532.5,-112.5 470.5,-112.5"/>
<text text-anchor="middle" x="501.5" y="-119.5" font-family="Helvetica,sans-Serif" font-size="10.00">stdbool.h</text>
</a>
</g>
</g>
<!-- Node3&#45;&gt;Node7 -->
<g id="edge6" class="edge">
<title>Node3&#45;&gt;Node7</title>
<path fill="none" stroke="midnightblue" d="M397.15,-168.44C417.46,-159.6 449.4,-145.69 472.6,-135.59"/>
<polygon fill="midnightblue" stroke="midnightblue" points="474.17,-138.72 481.94,-131.52 471.38,-132.3 474.17,-138.72"/>
</g>
<!-- Node8&#45;&gt;Node4 -->
<g id="edge8" class="edge">
<title>Node8&#45;&gt;Node4</title>
<path fill="none" stroke="midnightblue" d="M181.44,-112.37C191.79,-94.3 215.92,-52.18 229.59,-28.31"/>
<polygon fill="midnightblue" stroke="midnightblue" points="232.65,-30.01 234.58,-19.59 226.57,-26.53 232.65,-30.01"/>
</g>
<!-- Node9 -->
<g id="node9" class="node">
<title>Node9</title>
<g id="a_node9"><a xlink:title=" ">
<polygon fill="white" stroke="#bfbfbf" points="86,-0.5 86,-19.5 139,-19.5 139,-0.5 86,-0.5"/>
<text text-anchor="middle" x="112.5" y="-7.5" font-family="Helvetica,sans-Serif" font-size="10.00">graph.h</text>
</a>
</g>
</g>
<!-- Node8&#45;&gt;Node9 -->
<g id="edge9" class="edge">
<title>Node8&#45;&gt;Node9</title>
<path fill="none" stroke="midnightblue" d="M164.89,-112.23C154.7,-103.95 140.17,-90.64 131.5,-76 122.98,-61.62 118.06,-43.16 115.37,-29.59"/>
<polygon fill="midnightblue" stroke="midnightblue" points="118.79,-28.78 113.61,-19.54 111.89,-29.99 118.79,-28.78"/>
</g>
<!-- Node10 -->
<g id="node10" class="node">
<title>Node10</title>
<g id="a_node10"><a xlink:href="motif_8h.html" target="_top" xlink:title="Motif API.">
<polygon fill="white" stroke="black" points="141,-56.5 141,-75.5 192,-75.5 192,-56.5 141,-56.5"/>
<text text-anchor="middle" x="166.5" y="-63.5" font-family="Helvetica,sans-Serif" font-size="10.00">motif.h</text>
</a>
</g>
</g>
<!-- Node8&#45;&gt;Node10 -->
<g id="edge10" class="edge">
<title>Node8&#45;&gt;Node10</title>
<path fill="none" stroke="midnightblue" d="M174.85,-112.08C173.52,-104.93 171.62,-94.64 169.96,-85.69"/>
<polygon fill="midnightblue" stroke="midnightblue" points="173.38,-84.95 168.12,-75.75 166.5,-86.22 173.38,-84.95"/>
</g>
<!-- Node10&#45;&gt;Node4 -->
<g id="edge11" class="edge">
<title>Node10&#45;&gt;Node4</title>
<path fill="none" stroke="midnightblue" d="M178.23,-56.32C189.34,-48.11 206.24,-35.6 219.48,-25.81"/>
<polygon fill="midnightblue" stroke="midnightblue" points="221.6,-28.59 227.56,-19.83 217.44,-22.97 221.6,-28.59"/>
</g>
<!-- Node10&#45;&gt;Node9 -->
<g id="edge12" class="edge">
<title>Node10&#45;&gt;Node9</title>
<path fill="none" stroke="midnightblue" d="M157.58,-56.08C149.72,-48.22 138.07,-36.57 128.58,-27.08"/>
<polygon fill="midnightblue" stroke="midnightblue" points="130.8,-24.35 121.25,-19.75 125.85,-29.3 130.8,-24.35"/>
</g>
<!-- Node11&#45;&gt;Node4 -->
<g id="edge14" class="edge">
<title>Node11&#45;&gt;Node4</title>
<path fill="none" stroke="midnightblue" d="M192.56,-168.46C205.25,-160.76 222.18,-148.17 230.5,-132 247.39,-99.17 245.37,-54.59 242.42,-29.73"/>
<polygon fill="midnightblue" stroke="midnightblue" points="245.85,-28.95 241.02,-19.52 238.91,-29.91 245.85,-28.95"/>
</g>
<!-- Node11&#45;&gt;Node8 -->
<g id="edge16" class="edge">
<title>Node11&#45;&gt;Node8</title>
<path fill="none" stroke="midnightblue" d="M176.5,-168.08C176.5,-161.01 176.5,-150.86 176.5,-141.99"/>
<polygon fill="midnightblue" stroke="midnightblue" points="180,-141.75 176.5,-131.75 173,-141.75 180,-141.75"/>
</g>
<!-- Node11&#45;&gt;Node9 -->
<g id="edge15" class="edge">
<title>Node11&#45;&gt;Node9</title>
<path fill="none" stroke="midnightblue" d="M160.48,-168.44C147.8,-160.73 130.88,-148.13 122.5,-132 105.47,-99.22 107.07,-54.62 109.77,-29.74"/>
<polygon fill="midnightblue" stroke="midnightblue" points="113.28,-29.89 111.07,-19.53 106.34,-29.01 113.28,-29.89"/>
</g>
</g>
</svg>
