<?xml version="1.0" encoding="UTF-8" standalone="no"?>
<!DOCTYPE svg PUBLIC "-//W3C//DTD SVG 1.1//EN"
 "http://www.w3.org/Graphics/SVG/1.1/DTD/svg11.dtd">
<!-- Generated by graphviz version 2.43.0 (0)
 -->
<!-- Title: graph_builder_create_reduction Pages: 1 -->
<svg width="270pt" height="142pt"
 viewBox="0.00 0.00 270.00 142.00" xmlns="http://www.w3.org/2000/svg" xmlns:xlink="http://www.w3.org/1999/xlink">
<g id="graph0" class="graph" transform="scale(1 1) rotate(0) translate(4 138)">
<title>graph_builder_create_reduction</title>
<polygon fill="white" stroke="transparent" points="-4,4 -4,-138 266,-138 266,4 -4,4"/>
<!-- Node1 -->
<g id="node1" class="node">
<title>Node1</title>
<g id="a_node1"><a xlink:title=" ">
<polygon fill="#bfbfbf" stroke="black" points="0,-52 0,-82 119,-82 119,-52 0,-52"/>
<text text-anchor="start" x="8" y="-70" font-family="Helvetica,sans-Serif" font-size="10.00">graph_builder_create</text>
<text text-anchor="middle" x="59.5" y="-59" font-family="Helvetica,sans-Serif" font-size="10.00">_reduction</text>
</a>
</g>
</g>
<!-- Node2 -->
<g id="node2" class="node">
<title>Node2</title>
<g id="a_node2"><a xlink:href="graph__builder_8c.html#ae59a04a980c7b52089db337e2327dcc5" target="_top" xlink:title=" ">
<polygon fill="white" stroke="black" points="155,-114.5 155,-133.5 262,-133.5 262,-114.5 155,-114.5"/>
<text text-anchor="middle" x="208.5" y="-121.5" font-family="Helvetica,sans-Serif" font-size="10.00">graph_builder_add</text>
</a>
</g>
</g>
<!-- Node1&#45;&gt;Node2 -->
<g id="edge1" class="edge">
<title>Node1&#45;&gt;Node2</title>
<path fill="none" stroke="midnightblue" d="M97.18,-82.1C114.64,-89.19 135.84,-97.68 155,-105 160.15,-106.97 165.6,-109 170.97,-110.97"/>
<polygon fill="midnightblue" stroke="midnightblue" points="169.86,-114.29 180.45,-114.42 172.25,-107.71 169.86,-114.29"/>
</g>
<!-- Node3 -->
<g id="node3" class="node">
<title>Node3</title>
<g id="a_node3"><a xlink:href="graph__builder_8c.html#a5dc53a98a9d9238fd9a7a0a7e700e083" target="_top" xlink:title=" ">
<polygon fill="white" stroke="black" points="155,-76.5 155,-95.5 262,-95.5 262,-76.5 155,-76.5"/>
<text text-anchor="middle" x="208.5" y="-83.5" font-family="Helvetica,sans-Serif" font-size="10.00">graph_builder_and</text>
</a>
</g>
</g>
<!-- Node1&#45;&gt;Node3 -->
<g id="edge2" class="edge">
<title>Node1&#45;&gt;Node3</title>
<path fill="none" stroke="midnightblue" d="M119.02,-74.56C127.54,-75.66 136.33,-76.8 144.93,-77.91"/>
<polygon fill="midnightblue" stroke="midnightblue" points="144.53,-81.39 154.89,-79.2 145.42,-74.45 144.53,-81.39"/>
</g>
<!-- Node4 -->
<g id="node4" class="node">
<title>Node4</title>
<g id="a_node4"><a xlink:href="graph__builder_8c.html#a1caffd7dbaf1f3d7a52b10af5ecb6b56" target="_top" xlink:title=" ">
<polygon fill="white" stroke="black" points="155,-38.5 155,-57.5 262,-57.5 262,-38.5 155,-38.5"/>
<text text-anchor="middle" x="208.5" y="-45.5" font-family="Helvetica,sans-Serif" font-size="10.00">graph_builder_mul</text>
</a>
</g>
</g>
<!-- Node1&#45;&gt;Node4 -->
<g id="edge3" class="edge">
<title>Node1&#45;&gt;Node4</title>
<path fill="none" stroke="midnightblue" d="M119.02,-59.44C127.54,-58.34 136.33,-57.2 144.93,-56.09"/>
<polygon fill="midnightblue" stroke="midnightblue" points="145.42,-59.55 154.89,-54.8 144.53,-52.61 145.42,-59.55"/>
</g>
<!-- Node5 -->
<g id="node5" class="node">
<title>Node5</title>
<g id="a_node5"><a xlink:href="graph__builder_8c.html#a04c9831b1cfdadbe38421cd430c3276e" target="_top" xlink:title=" ">
<polygon fill="white" stroke="black" points="159.5,-0.5 159.5,-19.5 257.5,-19.5 257.5,-0.5 159.5,-0.5"/>
<text text-anchor="middle" x="208.5" y="-7.5" font-family="Helvetica,sans-Serif" font-size="10.00">graph_builder_or</text>
</a>
</g>
</g>
<!-- Node1&#45;&gt;Node5 -->
<g id="edge4" class="edge">
<title>Node1&#45;&gt;Node5</title>
<path fill="none" stroke="midnightblue" d="M97.18,-51.9C114.64,-44.81 135.84,-36.32 155,-29 160.15,-27.03 165.6,-25 170.97,-23.03"/>
<polygon fill="midnightblue" stroke="midnightblue" points="172.25,-26.29 180.45,-19.58 169.86,-19.71 172.25,-26.29"/>
</g>
</g>
</svg>
