<?xml version="1.0" encoding="UTF-8" standalone="no"?>
<!DOCTYPE svg PUBLIC "-//W3C//DTD SVG 1.1//EN"
 "http://www.w3.org/Graphics/SVG/1.1/DTD/svg11.dtd">
<!-- Generated by graphviz version 2.43.0 (0)
 -->
<!-- Title: WorkerThreadArg Pages: 1 -->
<svg width="303pt" height="398pt"
 viewBox="0.00 0.00 302.50 398.00" xmlns="http://www.w3.org/2000/svg" xmlns:xlink="http://www.w3.org/1999/xlink">
<g id="graph0" class="graph" transform="scale(1 1) rotate(0) translate(4 394)">
<title>WorkerThreadArg</title>
<polygon fill="white" stroke="transparent" points="-4,4 -4,-394 298.5,-394 298.5,4 -4,4"/>
<!-- Node1 -->
<g id="node1" class="node">
<title>Node1</title>
<g id="a_node1"><a xlink:title=" ">
<polygon fill="#bfbfbf" stroke="black" points="92,-0.5 92,-19.5 193,-19.5 193,-0.5 92,-0.5"/>
<text text-anchor="middle" x="142.5" y="-7.5" font-family="Helvetica,sans-Serif" font-size="10.00">WorkerThreadArg</text>
</a>
</g>
</g>
<!-- Node2 -->
<g id="node2" class="node">
<title>Node2</title>
<g id="a_node2"><a xlink:href="structWorkStealingScheduler.html" target="_top" xlink:title=" ">
<polygon fill="white" stroke="black" points="78,-67.5 78,-86.5 207,-86.5 207,-67.5 78,-67.5"/>
<text text-anchor="middle" x="142.5" y="-74.5" font-family="Helvetica,sans-Serif" font-size="10.00">WorkStealingScheduler</text>
</a>
</g>
</g>
<!-- Node2&#45;&gt;Node1 -->
<g id="edge1" class="edge">
<title>Node2&#45;&gt;Node1</title>
<path fill="none" stroke="#9a32cd" stroke-dasharray="5,2" d="M142.5,-57.04C142.5,-44.67 142.5,-29.12 142.5,-19.63"/>
<polygon fill="#9a32cd" stroke="#9a32cd" points="139,-57.23 142.5,-67.23 146,-57.23 139,-57.23"/>
<text text-anchor="middle" x="158.5" y="-41" font-family="Helvetica,sans-Serif" font-size="10.00"> sched</text>
</g>
<!-- Node3 -->
<g id="node3" class="node">
<title>Node3</title>
<g id="a_node3"><a xlink:href="structBdiGraph.html" target="_top" xlink:title=" ">
<polygon fill="white" stroke="black" points="20.5,-145.5 20.5,-164.5 82.5,-164.5 82.5,-145.5 20.5,-145.5"/>
<text text-anchor="middle" x="51.5" y="-152.5" font-family="Helvetica,sans-Serif" font-size="10.00">BdiGraph</text>
</a>
</g>
</g>
<!-- Node3&#45;&gt;Node2 -->
<g id="edge2" class="edge">
<title>Node3&#45;&gt;Node2</title>
<path fill="none" stroke="#9a32cd" stroke-dasharray="5,2" d="M68.45,-138.68C79.44,-128.88 94.14,-115.98 107.5,-105 115.21,-98.67 124.11,-91.8 131.01,-86.58"/>
<polygon fill="#9a32cd" stroke="#9a32cd" points="65.96,-136.21 60.86,-145.5 70.64,-141.42 65.96,-136.21"/>
<text text-anchor="middle" x="123" y="-113.5" font-family="Helvetica,sans-Serif" font-size="10.00"> graph</text>
</g>
<!-- Node4 -->
<g id="node4" class="node">
<title>Node4</title>
<g id="a_node4"><a xlink:href="structGraphNode.html" target="_top" xlink:title=" ">
<polygon fill="white" stroke="black" points="33,-292.5 33,-311.5 104,-311.5 104,-292.5 33,-292.5"/>
<text text-anchor="middle" x="68.5" y="-299.5" font-family="Helvetica,sans-Serif" font-size="10.00">GraphNode</text>
</a>
</g>
</g>
<!-- Node4&#45;&gt;Node3 -->
<g id="edge3" class="edge">
<title>Node4&#45;&gt;Node3</title>
<path fill="none" stroke="#9a32cd" stroke-dasharray="5,2" d="M59.91,-282.85C54.18,-269.64 47.22,-251.14 44.5,-234 40.54,-209.02 46.03,-179.16 49.33,-164.7"/>
<polygon fill="#9a32cd" stroke="#9a32cd" points="56.82,-284.52 64.13,-292.18 63.19,-281.63 56.82,-284.52"/>
<text text-anchor="middle" x="61" y="-220.5" font-family="Helvetica,sans-Serif" font-size="10.00"> nodes</text>
</g>
<!-- Node4&#45;&gt;Node4 -->
<g id="edge9" class="edge">
<title>Node4&#45;&gt;Node4</title>
<path fill="none" stroke="#9a32cd" stroke-dasharray="5,2" d="M114.28,-307.87C118.99,-306.72 122,-304.76 122,-302 122,-297.58 114.29,-295.22 104.25,-294.91"/>
<polygon fill="#9a32cd" stroke="#9a32cd" points="113.76,-304.41 104.25,-309.09 114.6,-311.36 113.76,-304.41"/>
<text text-anchor="middle" x="134.5" y="-299.5" font-family="Helvetica,sans-Serif" font-size="10.00"> next</text>
</g>
<!-- Node6 -->
<g id="node6" class="node">
<title>Node6</title>
<g id="a_node6"><a xlink:href="structGraphEdge.html" target="_top" xlink:title=" ">
<polygon fill="white" stroke="black" points="86.5,-213.5 86.5,-232.5 156.5,-232.5 156.5,-213.5 86.5,-213.5"/>
<text text-anchor="middle" x="121.5" y="-220.5" font-family="Helvetica,sans-Serif" font-size="10.00">GraphEdge</text>
</a>
</g>
</g>
<!-- Node4&#45;&gt;Node6 -->
<g id="edge6" class="edge">
<title>Node4&#45;&gt;Node6</title>
<path fill="none" stroke="#9a32cd" stroke-dasharray="5,2" d="M62.47,-282.41C60.47,-272.68 59.97,-260.95 65.5,-252 71.04,-243.03 80.43,-236.84 89.94,-232.61"/>
<polygon fill="#9a32cd" stroke="#9a32cd" points="59.16,-283.55 65.13,-292.3 65.92,-281.73 59.16,-283.55"/>
<text text-anchor="middle" x="83.5" y="-266" font-family="Helvetica,sans-Serif" font-size="10.00"> source</text>
<text text-anchor="middle" x="83.5" y="-255" font-family="Helvetica,sans-Serif" font-size="10.00">target</text>
</g>
<!-- Node5 -->
<g id="node5" class="node">
<title>Node5</title>
<g id="a_node5"><a xlink:href="structBdiType.html" target="_top" xlink:title=" ">
<polygon fill="white" stroke="black" points="0,-370.5 0,-389.5 55,-389.5 55,-370.5 0,-370.5"/>
<text text-anchor="middle" x="27.5" y="-377.5" font-family="Helvetica,sans-Serif" font-size="10.00">BdiType</text>
</a>
</g>
</g>
<!-- Node5&#45;&gt;Node4 -->
<g id="edge4" class="edge">
<title>Node5&#45;&gt;Node4</title>
<path fill="none" stroke="#9a32cd" stroke-dasharray="5,2" d="M30.56,-360.13C32.66,-350.63 36.08,-339.21 41.5,-330 45.6,-323.03 51.93,-316.57 57.42,-311.72"/>
<polygon fill="#9a32cd" stroke="#9a32cd" points="27.08,-359.67 28.65,-370.15 33.96,-360.98 27.08,-359.67"/>
<text text-anchor="middle" x="64.5" y="-338.5" font-family="Helvetica,sans-Serif" font-size="10.00"> out_type</text>
</g>
<!-- Node6&#45;&gt;Node3 -->
<g id="edge10" class="edge">
<title>Node6&#45;&gt;Node3</title>
<path fill="none" stroke="#9a32cd" stroke-dasharray="5,2" d="M104.97,-206.41C91.22,-193.45 72.14,-175.46 60.88,-164.84"/>
<polygon fill="#9a32cd" stroke="#9a32cd" points="102.67,-209.06 112.35,-213.37 107.47,-203.96 102.67,-209.06"/>
<text text-anchor="middle" x="108" y="-186" font-family="Helvetica,sans-Serif" font-size="10.00"> edges</text>
</g>
<!-- Node6&#45;&gt;Node4 -->
<g id="edge5" class="edge">
<title>Node6&#45;&gt;Node4</title>
<path fill="none" stroke="#9a32cd" stroke-dasharray="5,2" d="M118.45,-242.63C116.14,-252.63 112.16,-264.76 105.5,-274 100.1,-281.48 92,-287.73 84.75,-292.32"/>
<polygon fill="#9a32cd" stroke="#9a32cd" points="121.95,-243 120.43,-232.51 115.08,-241.66 121.95,-243"/>
<text text-anchor="middle" x="135" y="-266" font-family="Helvetica,sans-Serif" font-size="10.00"> inputs</text>
<text text-anchor="middle" x="135" y="-255" font-family="Helvetica,sans-Serif" font-size="10.00">outputs</text>
</g>
<!-- Node6&#45;&gt;Node6 -->
<g id="edge7" class="edge">
<title>Node6&#45;&gt;Node6</title>
<path fill="none" stroke="#9a32cd" stroke-dasharray="5,2" d="M166.73,-228.28C171.47,-227.25 174.5,-225.49 174.5,-223 174.5,-219.02 166.74,-216.9 156.67,-216.65"/>
<polygon fill="#9a32cd" stroke="#9a32cd" points="166.24,-224.81 156.67,-229.35 166.98,-231.78 166.24,-224.81"/>
<text text-anchor="middle" x="206" y="-226" font-family="Helvetica,sans-Serif" font-size="10.00"> next_source</text>
<text text-anchor="middle" x="206" y="-215" font-family="Helvetica,sans-Serif" font-size="10.00">next_target</text>
</g>
<!-- Node7 -->
<g id="node7" class="node">
<title>Node7</title>
<g id="a_node7"><a xlink:href="structGraphValue.html" target="_top" xlink:title=" ">
<polygon fill="white" stroke="black" points="73,-370.5 73,-389.5 146,-389.5 146,-370.5 73,-370.5"/>
<text text-anchor="middle" x="109.5" y="-377.5" font-family="Helvetica,sans-Serif" font-size="10.00">GraphValue</text>
</a>
</g>
</g>
<!-- Node7&#45;&gt;Node4 -->
<g id="edge8" class="edge">
<title>Node7&#45;&gt;Node4</title>
<path fill="none" stroke="#9a32cd" stroke-dasharray="5,2" d="M102.36,-360.92C98.39,-351.49 93.13,-339.89 87.5,-330 83.87,-323.62 79.12,-316.87 75.28,-311.72"/>
<polygon fill="#9a32cd" stroke="#9a32cd" points="99.22,-362.5 106.24,-370.44 105.71,-359.86 99.22,-362.5"/>
<text text-anchor="middle" x="137.5" y="-344" font-family="Helvetica,sans-Serif" font-size="10.00"> constant_value</text>
<text text-anchor="middle" x="137.5" y="-333" font-family="Helvetica,sans-Serif" font-size="10.00">output_values</text>
</g>
<!-- Node8 -->
<g id="node8" class="node">
<title>Node8</title>
<g id="a_node8"><a xlink:href="structDeviceVTable.html" target="_top" xlink:title=" ">
<polygon fill="white" stroke="black" points="101,-145.5 101,-164.5 184,-164.5 184,-145.5 101,-145.5"/>
<text text-anchor="middle" x="142.5" y="-152.5" font-family="Helvetica,sans-Serif" font-size="10.00">DeviceVTable</text>
</a>
</g>
</g>
<!-- Node8&#45;&gt;Node2 -->
<g id="edge11" class="edge">
<title>Node8&#45;&gt;Node2</title>
<path fill="none" stroke="#9a32cd" stroke-dasharray="5,2" d="M142.5,-135.22C142.5,-119.7 142.5,-98.36 142.5,-86.62"/>
<polygon fill="#9a32cd" stroke="#9a32cd" points="139,-135.28 142.5,-145.28 146,-135.28 139,-135.28"/>
<text text-anchor="middle" x="163" y="-113.5" font-family="Helvetica,sans-Serif" font-size="10.00"> devices</text>
</g>
<!-- Node9 -->
<g id="node9" class="node">
<title>Node9</title>
<g id="a_node9"><a xlink:href="structLockFreeQueue.html" target="_top" xlink:title=" ">
<polygon fill="white" stroke="black" points="202.5,-145.5 202.5,-164.5 294.5,-164.5 294.5,-145.5 202.5,-145.5"/>
<text text-anchor="middle" x="248.5" y="-152.5" font-family="Helvetica,sans-Serif" font-size="10.00">LockFreeQueue</text>
</a>
</g>
</g>
<!-- Node9&#45;&gt;Node2 -->
<g id="edge12" class="edge">
<title>Node9&#45;&gt;Node2</title>
<path fill="none" stroke="#9a32cd" stroke-dasharray="5,2" d="M230.63,-138.58C218.73,-128.57 202.57,-115.5 187.5,-105 178.08,-98.44 167.03,-91.79 158.24,-86.74"/>
<polygon fill="#9a32cd" stroke="#9a32cd" points="228.58,-141.43 238.47,-145.24 233.12,-136.09 228.58,-141.43"/>
<text text-anchor="middle" x="254.5" y="-119" font-family="Helvetica,sans-Serif" font-size="10.00"> local_queue</text>
<text text-anchor="middle" x="254.5" y="-108" font-family="Helvetica,sans-Serif" font-size="10.00">remote_queues</text>
</g>
</g>
</svg>
