<?xml version="1.0" encoding="UTF-8" standalone="no"?>
<!DOCTYPE svg PUBLIC "-//W3C//DTD SVG 1.1//EN"
 "http://www.w3.org/Graphics/SVG/1.1/DTD/svg11.dtd">
<!-- Generated by graphviz version 2.43.0 (0)
 -->
<!-- Title: PriorityScheduler Pages: 1 -->
<svg width="303pt" height="320pt"
 viewBox="0.00 0.00 302.50 320.00" xmlns="http://www.w3.org/2000/svg" xmlns:xlink="http://www.w3.org/1999/xlink">
<g id="graph0" class="graph" transform="scale(1 1) rotate(0) translate(4 316)">
<title>PriorityScheduler</title>
<polygon fill="white" stroke="transparent" points="-4,4 -4,-316 298.5,-316 298.5,4 -4,4"/>
<!-- Node1 -->
<g id="node1" class="node">
<title>Node1</title>
<g id="a_node1"><a xlink:title=" ">
<polygon fill="#bfbfbf" stroke="black" points="92.5,-0.5 92.5,-19.5 192.5,-19.5 192.5,-0.5 92.5,-0.5"/>
<text text-anchor="middle" x="142.5" y="-7.5" font-family="Helvetica,sans-Serif" font-size="10.00">PriorityScheduler</text>
</a>
</g>
</g>
<!-- Node2 -->
<g id="node2" class="node">
<title>Node2</title>
<g id="a_node2"><a xlink:href="structBdiGraph.html" target="_top" xlink:title=" ">
<polygon fill="white" stroke="black" points="20.5,-67.5 20.5,-86.5 82.5,-86.5 82.5,-67.5 20.5,-67.5"/>
<text text-anchor="middle" x="51.5" y="-74.5" font-family="Helvetica,sans-Serif" font-size="10.00">BdiGraph</text>
</a>
</g>
</g>
<!-- Node2&#45;&gt;Node1 -->
<g id="edge1" class="edge">
<title>Node2&#45;&gt;Node1</title>
<path fill="none" stroke="#9a32cd" stroke-dasharray="5,2" d="M71.91,-61.42C89.9,-48.57 115.51,-30.28 130.42,-19.63"/>
<polygon fill="#9a32cd" stroke="#9a32cd" points="69.88,-58.57 63.77,-67.23 73.94,-64.27 69.88,-58.57"/>
<text text-anchor="middle" x="118" y="-41" font-family="Helvetica,sans-Serif" font-size="10.00"> graph</text>
</g>
<!-- Node3 -->
<g id="node3" class="node">
<title>Node3</title>
<g id="a_node3"><a xlink:href="structGraphNode.html" target="_top" xlink:title=" ">
<polygon fill="white" stroke="black" points="33,-214.5 33,-233.5 104,-233.5 104,-214.5 33,-214.5"/>
<text text-anchor="middle" x="68.5" y="-221.5" font-family="Helvetica,sans-Serif" font-size="10.00">GraphNode</text>
</a>
</g>
</g>
<!-- Node3&#45;&gt;Node2 -->
<g id="edge2" class="edge">
<title>Node3&#45;&gt;Node2</title>
<path fill="none" stroke="#9a32cd" stroke-dasharray="5,2" d="M59.91,-204.85C54.18,-191.64 47.22,-173.14 44.5,-156 40.54,-131.02 46.03,-101.16 49.33,-86.7"/>
<polygon fill="#9a32cd" stroke="#9a32cd" points="56.82,-206.52 64.13,-214.18 63.19,-203.63 56.82,-206.52"/>
<text text-anchor="middle" x="61" y="-142.5" font-family="Helvetica,sans-Serif" font-size="10.00"> nodes</text>
</g>
<!-- Node3&#45;&gt;Node3 -->
<g id="edge8" class="edge">
<title>Node3&#45;&gt;Node3</title>
<path fill="none" stroke="#9a32cd" stroke-dasharray="5,2" d="M114.28,-229.87C118.99,-228.72 122,-226.76 122,-224 122,-219.58 114.29,-217.22 104.25,-216.91"/>
<polygon fill="#9a32cd" stroke="#9a32cd" points="113.76,-226.41 104.25,-231.09 114.6,-233.36 113.76,-226.41"/>
<text text-anchor="middle" x="134.5" y="-221.5" font-family="Helvetica,sans-Serif" font-size="10.00"> next</text>
</g>
<!-- Node5 -->
<g id="node5" class="node">
<title>Node5</title>
<g id="a_node5"><a xlink:href="structGraphEdge.html" target="_top" xlink:title=" ">
<polygon fill="white" stroke="black" points="86.5,-135.5 86.5,-154.5 156.5,-154.5 156.5,-135.5 86.5,-135.5"/>
<text text-anchor="middle" x="121.5" y="-142.5" font-family="Helvetica,sans-Serif" font-size="10.00">GraphEdge</text>
</a>
</g>
</g>
<!-- Node3&#45;&gt;Node5 -->
<g id="edge5" class="edge">
<title>Node3&#45;&gt;Node5</title>
<path fill="none" stroke="#9a32cd" stroke-dasharray="5,2" d="M62.47,-204.41C60.47,-194.68 59.97,-182.95 65.5,-174 71.04,-165.03 80.43,-158.84 89.94,-154.61"/>
<polygon fill="#9a32cd" stroke="#9a32cd" points="59.16,-205.55 65.13,-214.3 65.92,-203.73 59.16,-205.55"/>
<text text-anchor="middle" x="83.5" y="-188" font-family="Helvetica,sans-Serif" font-size="10.00"> source</text>
<text text-anchor="middle" x="83.5" y="-177" font-family="Helvetica,sans-Serif" font-size="10.00">target</text>
</g>
<!-- Node4 -->
<g id="node4" class="node">
<title>Node4</title>
<g id="a_node4"><a xlink:href="structBdiType.html" target="_top" xlink:title=" ">
<polygon fill="white" stroke="black" points="0,-292.5 0,-311.5 55,-311.5 55,-292.5 0,-292.5"/>
<text text-anchor="middle" x="27.5" y="-299.5" font-family="Helvetica,sans-Serif" font-size="10.00">BdiType</text>
</a>
</g>
</g>
<!-- Node4&#45;&gt;Node3 -->
<g id="edge3" class="edge">
<title>Node4&#45;&gt;Node3</title>
<path fill="none" stroke="#9a32cd" stroke-dasharray="5,2" d="M30.56,-282.13C32.66,-272.63 36.08,-261.21 41.5,-252 45.6,-245.03 51.93,-238.57 57.42,-233.72"/>
<polygon fill="#9a32cd" stroke="#9a32cd" points="27.08,-281.67 28.65,-292.15 33.96,-282.98 27.08,-281.67"/>
<text text-anchor="middle" x="64.5" y="-260.5" font-family="Helvetica,sans-Serif" font-size="10.00"> out_type</text>
</g>
<!-- Node5&#45;&gt;Node2 -->
<g id="edge9" class="edge">
<title>Node5&#45;&gt;Node2</title>
<path fill="none" stroke="#9a32cd" stroke-dasharray="5,2" d="M104.97,-128.41C91.22,-115.45 72.14,-97.46 60.88,-86.84"/>
<polygon fill="#9a32cd" stroke="#9a32cd" points="102.67,-131.06 112.35,-135.37 107.47,-125.96 102.67,-131.06"/>
<text text-anchor="middle" x="108" y="-108" font-family="Helvetica,sans-Serif" font-size="10.00"> edges</text>
</g>
<!-- Node5&#45;&gt;Node3 -->
<g id="edge4" class="edge">
<title>Node5&#45;&gt;Node3</title>
<path fill="none" stroke="#9a32cd" stroke-dasharray="5,2" d="M118.45,-164.63C116.14,-174.63 112.16,-186.76 105.5,-196 100.1,-203.48 92,-209.73 84.75,-214.32"/>
<polygon fill="#9a32cd" stroke="#9a32cd" points="121.95,-165 120.43,-154.51 115.08,-163.66 121.95,-165"/>
<text text-anchor="middle" x="135" y="-188" font-family="Helvetica,sans-Serif" font-size="10.00"> inputs</text>
<text text-anchor="middle" x="135" y="-177" font-family="Helvetica,sans-Serif" font-size="10.00">outputs</text>
</g>
<!-- Node5&#45;&gt;Node5 -->
<g id="edge6" class="edge">
<title>Node5&#45;&gt;Node5</title>
<path fill="none" stroke="#9a32cd" stroke-dasharray="5,2" d="M166.73,-150.28C171.47,-149.25 174.5,-147.49 174.5,-145 174.5,-141.02 166.74,-138.9 156.67,-138.65"/>
<polygon fill="#9a32cd" stroke="#9a32cd" points="166.24,-146.81 156.67,-151.35 166.98,-153.78 166.24,-146.81"/>
<text text-anchor="middle" x="206" y="-148" font-family="Helvetica,sans-Serif" font-size="10.00"> next_source</text>
<text text-anchor="middle" x="206" y="-137" font-family="Helvetica,sans-Serif" font-size="10.00">next_target</text>
</g>
<!-- Node6 -->
<g id="node6" class="node">
<title>Node6</title>
<g id="a_node6"><a xlink:href="structGraphValue.html" target="_top" xlink:title=" ">
<polygon fill="white" stroke="black" points="73,-292.5 73,-311.5 146,-311.5 146,-292.5 73,-292.5"/>
<text text-anchor="middle" x="109.5" y="-299.5" font-family="Helvetica,sans-Serif" font-size="10.00">GraphValue</text>
</a>
</g>
</g>
<!-- Node6&#45;&gt;Node3 -->
<g id="edge7" class="edge">
<title>Node6&#45;&gt;Node3</title>
<path fill="none" stroke="#9a32cd" stroke-dasharray="5,2" d="M102.36,-282.92C98.39,-273.49 93.13,-261.89 87.5,-252 83.87,-245.62 79.12,-238.87 75.28,-233.72"/>
<polygon fill="#9a32cd" stroke="#9a32cd" points="99.22,-284.5 106.24,-292.44 105.71,-281.86 99.22,-284.5"/>
<text text-anchor="middle" x="137.5" y="-266" font-family="Helvetica,sans-Serif" font-size="10.00"> constant_value</text>
<text text-anchor="middle" x="137.5" y="-255" font-family="Helvetica,sans-Serif" font-size="10.00">output_values</text>
</g>
<!-- Node7 -->
<g id="node7" class="node">
<title>Node7</title>
<g id="a_node7"><a xlink:href="structDeviceVTable.html" target="_top" xlink:title=" ">
<polygon fill="white" stroke="black" points="101,-67.5 101,-86.5 184,-86.5 184,-67.5 101,-67.5"/>
<text text-anchor="middle" x="142.5" y="-74.5" font-family="Helvetica,sans-Serif" font-size="10.00">DeviceVTable</text>
</a>
</g>
</g>
<!-- Node7&#45;&gt;Node1 -->
<g id="edge10" class="edge">
<title>Node7&#45;&gt;Node1</title>
<path fill="none" stroke="#9a32cd" stroke-dasharray="5,2" d="M142.5,-57.04C142.5,-44.67 142.5,-29.12 142.5,-19.63"/>
<polygon fill="#9a32cd" stroke="#9a32cd" points="139,-57.23 142.5,-67.23 146,-57.23 139,-57.23"/>
<text text-anchor="middle" x="163" y="-41" font-family="Helvetica,sans-Serif" font-size="10.00"> devices</text>
</g>
<!-- Node8 -->
<g id="node8" class="node">
<title>Node8</title>
<g id="a_node8"><a xlink:href="structScheduledNode.html" target="_top" xlink:title=" ">
<polygon fill="white" stroke="black" points="202.5,-67.5 202.5,-86.5 294.5,-86.5 294.5,-67.5 202.5,-67.5"/>
<text text-anchor="middle" x="248.5" y="-74.5" font-family="Helvetica,sans-Serif" font-size="10.00">ScheduledNode</text>
</a>
</g>
</g>
<!-- Node8&#45;&gt;Node1 -->
<g id="edge11" class="edge">
<title>Node8&#45;&gt;Node1</title>
<path fill="none" stroke="#9a32cd" stroke-dasharray="5,2" d="M226.39,-62.11C214.83,-54.87 200.44,-45.91 187.5,-38 177.4,-31.82 165.95,-24.96 157.13,-19.69"/>
<polygon fill="#9a32cd" stroke="#9a32cd" points="224.64,-65.14 234.97,-67.48 228.36,-59.21 224.64,-65.14"/>
<text text-anchor="middle" x="247.5" y="-41" font-family="Helvetica,sans-Serif" font-size="10.00"> scheduled_nodes</text>
</g>
</g>
</svg>
