<?xml version="1.0" encoding="UTF-8" standalone="no"?>
<!DOCTYPE svg PUBLIC "-//W3C//DTD SVG 1.1//EN"
 "http://www.w3.org/Graphics/SVG/1.1/DTD/svg11.dtd">
<!-- Generated by graphviz version 2.43.0 (0)
 -->
<!-- Title: C/kernel/scheduler/wavefront/wavefront_scheduler.c Pages: 1 -->
<svg width="505pt" height="330pt"
 viewBox="0.00 0.00 504.50 330.00" xmlns="http://www.w3.org/2000/svg" xmlns:xlink="http://www.w3.org/1999/xlink">
<g id="graph0" class="graph" transform="scale(1 1) rotate(0) translate(4 326)">
<title>C/kernel/scheduler/wavefront/wavefront_scheduler.c</title>
<polygon fill="white" stroke="transparent" points="-4,4 -4,-326 500.5,-326 500.5,4 -4,4"/>
<!-- Node1 -->
<g id="node1" class="node">
<title>Node1</title>
<g id="a_node1"><a xlink:title=" ">
<polygon fill="#bfbfbf" stroke="black" points="292.5,-280.5 292.5,-321.5 414.5,-321.5 414.5,-280.5 292.5,-280.5"/>
<text text-anchor="start" x="300.5" y="-309.5" font-family="Helvetica,sans-Serif" font-size="10.00">C/kernel/scheduler</text>
<text text-anchor="start" x="300.5" y="-298.5" font-family="Helvetica,sans-Serif" font-size="10.00">/wavefront/wavefront</text>
<text text-anchor="middle" x="353.5" y="-287.5" font-family="Helvetica,sans-Serif" font-size="10.00">_scheduler.c</text>
</a>
</g>
</g>
<!-- Node2 -->
<g id="node2" class="node">
<title>Node2</title>
<g id="a_node2"><a xlink:href="wavefront__scheduler_8h.html" target="_top" xlink:title="Task Scheduling System.">
<polygon fill="white" stroke="black" points="147,-224.5 147,-243.5 274,-243.5 274,-224.5 147,-224.5"/>
<text text-anchor="middle" x="210.5" y="-231.5" font-family="Helvetica,sans-Serif" font-size="10.00">wavefront_scheduler.h</text>
</a>
</g>
</g>
<!-- Node1&#45;&gt;Node2 -->
<g id="edge1" class="edge">
<title>Node1&#45;&gt;Node2</title>
<path fill="none" stroke="midnightblue" d="M310.6,-280.5C287.3,-269.91 259.16,-257.12 238.65,-247.8"/>
<polygon fill="midnightblue" stroke="midnightblue" points="240.09,-244.6 229.54,-243.65 237.19,-250.98 240.09,-244.6"/>
</g>
<!-- Node14 -->
<g id="node14" class="node">
<title>Node14</title>
<g id="a_node14"><a xlink:title=" ">
<polygon fill="white" stroke="#bfbfbf" points="292,-224.5 292,-243.5 345,-243.5 345,-224.5 292,-224.5"/>
<text text-anchor="middle" x="318.5" y="-231.5" font-family="Helvetica,sans-Serif" font-size="10.00">stdlib.h</text>
</a>
</g>
</g>
<!-- Node1&#45;&gt;Node14 -->
<g id="edge19" class="edge">
<title>Node1&#45;&gt;Node14</title>
<path fill="none" stroke="midnightblue" d="M343,-280.5C338.2,-271.59 332.56,-261.11 327.9,-252.46"/>
<polygon fill="midnightblue" stroke="midnightblue" points="330.98,-250.8 323.16,-243.65 324.82,-254.12 330.98,-250.8"/>
</g>
<!-- Node15 -->
<g id="node15" class="node">
<title>Node15</title>
<g id="a_node15"><a xlink:title=" ">
<polygon fill="white" stroke="#bfbfbf" points="363,-224.5 363,-243.5 416,-243.5 416,-224.5 363,-224.5"/>
<text text-anchor="middle" x="389.5" y="-231.5" font-family="Helvetica,sans-Serif" font-size="10.00">string.h</text>
</a>
</g>
</g>
<!-- Node1&#45;&gt;Node15 -->
<g id="edge20" class="edge">
<title>Node1&#45;&gt;Node15</title>
<path fill="none" stroke="midnightblue" d="M364.3,-280.5C369.24,-271.59 375.04,-261.11 379.83,-252.46"/>
<polygon fill="midnightblue" stroke="midnightblue" points="382.92,-254.1 384.71,-243.65 376.8,-250.7 382.92,-254.1"/>
</g>
<!-- Node16 -->
<g id="node16" class="node">
<title>Node16</title>
<g id="a_node16"><a xlink:title=" ">
<polygon fill="white" stroke="#bfbfbf" points="434.5,-224.5 434.5,-243.5 496.5,-243.5 496.5,-224.5 434.5,-224.5"/>
<text text-anchor="middle" x="465.5" y="-231.5" font-family="Helvetica,sans-Serif" font-size="10.00">threads.h</text>
</a>
</g>
</g>
<!-- Node1&#45;&gt;Node16 -->
<g id="edge21" class="edge">
<title>Node1&#45;&gt;Node16</title>
<path fill="none" stroke="midnightblue" d="M387.1,-280.5C404.77,-270.24 426,-257.93 441.91,-248.69"/>
<polygon fill="midnightblue" stroke="midnightblue" points="443.7,-251.7 450.59,-243.65 440.19,-245.64 443.7,-251.7"/>
</g>
<!-- Node3 -->
<g id="node3" class="node">
<title>Node3</title>
<g id="a_node3"><a xlink:title=" ">
<polygon fill="white" stroke="#bfbfbf" points="0,-168.5 0,-187.5 103,-187.5 103,-168.5 0,-168.5"/>
<text text-anchor="middle" x="51.5" y="-175.5" font-family="Helvetica,sans-Serif" font-size="10.00">../../c23_compat.h</text>
</a>
</g>
</g>
<!-- Node2&#45;&gt;Node3 -->
<g id="edge2" class="edge">
<title>Node2&#45;&gt;Node3</title>
<path fill="none" stroke="midnightblue" d="M185.31,-224.44C158.56,-215.36 116.1,-200.94 86.19,-190.78"/>
<polygon fill="midnightblue" stroke="midnightblue" points="87.17,-187.42 76.58,-187.52 84.92,-194.05 87.17,-187.42"/>
</g>
<!-- Node4 -->
<g id="node4" class="node">
<title>Node4</title>
<g id="a_node4"><a xlink:href="kernel_2graph_2graph_8h.html" target="_top" xlink:title="Graph Optimization and Execution.">
<polygon fill="white" stroke="black" points="159.5,-168.5 159.5,-187.5 261.5,-187.5 261.5,-168.5 159.5,-168.5"/>
<text text-anchor="middle" x="210.5" y="-175.5" font-family="Helvetica,sans-Serif" font-size="10.00">../../graph/graph.h</text>
</a>
</g>
</g>
<!-- Node2&#45;&gt;Node4 -->
<g id="edge3" class="edge">
<title>Node2&#45;&gt;Node4</title>
<path fill="none" stroke="midnightblue" d="M210.5,-224.08C210.5,-217.01 210.5,-206.86 210.5,-197.99"/>
<polygon fill="midnightblue" stroke="midnightblue" points="214,-197.75 210.5,-187.75 207,-197.75 214,-197.75"/>
</g>
<!-- Node6 -->
<g id="node6" class="node">
<title>Node6</title>
<g id="a_node6"><a xlink:title=" ">
<polygon fill="white" stroke="#bfbfbf" points="48,-112.5 48,-131.5 101,-131.5 101,-112.5 48,-112.5"/>
<text text-anchor="middle" x="74.5" y="-119.5" font-family="Helvetica,sans-Serif" font-size="10.00">stdint.h</text>
</a>
</g>
</g>
<!-- Node2&#45;&gt;Node6 -->
<g id="edge17" class="edge">
<title>Node2&#45;&gt;Node6</title>
<path fill="none" stroke="midnightblue" d="M198.37,-224.26C186.13,-215.35 166.76,-201.03 150.5,-188 129.92,-171.51 107.01,-151.71 91.78,-138.33"/>
<polygon fill="midnightblue" stroke="midnightblue" points="93.98,-135.61 84.17,-131.62 89.35,-140.86 93.98,-135.61"/>
</g>
<!-- Node9 -->
<g id="node9" class="node">
<title>Node9</title>
<g id="a_node9"><a xlink:href="device_8h.html" target="_top" xlink:title="Device Management.">
<polygon fill="white" stroke="black" points="280,-168.5 280,-187.5 391,-187.5 391,-168.5 280,-168.5"/>
<text text-anchor="middle" x="335.5" y="-175.5" font-family="Helvetica,sans-Serif" font-size="10.00">../../device/device.h</text>
</a>
</g>
</g>
<!-- Node2&#45;&gt;Node9 -->
<g id="edge8" class="edge">
<title>Node2&#45;&gt;Node9</title>
<path fill="none" stroke="midnightblue" d="M230.31,-224.44C250.79,-215.6 282.98,-201.69 306.36,-191.59"/>
<polygon fill="midnightblue" stroke="midnightblue" points="307.99,-194.7 315.79,-187.52 305.22,-188.27 307.99,-194.7"/>
</g>
<!-- Node13 -->
<g id="node13" class="node">
<title>Node13</title>
<g id="a_node13"><a xlink:title=" ">
<polygon fill="white" stroke="#bfbfbf" points="409.5,-168.5 409.5,-187.5 483.5,-187.5 483.5,-168.5 409.5,-168.5"/>
<text text-anchor="middle" x="446.5" y="-175.5" font-family="Helvetica,sans-Serif" font-size="10.00">stdatomic.h</text>
</a>
</g>
</g>
<!-- Node2&#45;&gt;Node13 -->
<g id="edge18" class="edge">
<title>Node2&#45;&gt;Node13</title>
<path fill="none" stroke="midnightblue" d="M247.89,-224.44C288.89,-215.06 354.75,-199.99 399.28,-189.8"/>
<polygon fill="midnightblue" stroke="midnightblue" points="400.31,-193.16 409.28,-187.52 398.75,-186.34 400.31,-193.16"/>
</g>
<!-- Node5 -->
<g id="node5" class="node">
<title>Node5</title>
<g id="a_node5"><a xlink:href="c23__compat_8h.html" target="_top" xlink:title="C23 Compat API.">
<polygon fill="white" stroke="black" points="298,-0.5 298,-19.5 383,-19.5 383,-0.5 298,-0.5"/>
<text text-anchor="middle" x="340.5" y="-7.5" font-family="Helvetica,sans-Serif" font-size="10.00">c23_compat.h</text>
</a>
</g>
</g>
<!-- Node4&#45;&gt;Node5 -->
<g id="edge4" class="edge">
<title>Node4&#45;&gt;Node5</title>
<path fill="none" stroke="midnightblue" d="M223.05,-168.33C234.66,-159.91 251.97,-146.33 264.5,-132 293.5,-98.83 318.85,-53.44 331.65,-28.75"/>
<polygon fill="midnightblue" stroke="midnightblue" points="334.92,-30.04 336.34,-19.54 328.68,-26.86 334.92,-30.04"/>
</g>
<!-- Node4&#45;&gt;Node6 -->
<g id="edge5" class="edge">
<title>Node4&#45;&gt;Node6</title>
<path fill="none" stroke="midnightblue" d="M188.95,-168.44C166.47,-159.52 131.01,-145.44 105.52,-135.32"/>
<polygon fill="midnightblue" stroke="midnightblue" points="106.53,-131.95 95.95,-131.52 103.95,-138.46 106.53,-131.95"/>
</g>
<!-- Node7 -->
<g id="node7" class="node">
<title>Node7</title>
<g id="a_node7"><a xlink:title=" ">
<polygon fill="white" stroke="#bfbfbf" points="119.5,-112.5 119.5,-131.5 175.5,-131.5 175.5,-112.5 119.5,-112.5"/>
<text text-anchor="middle" x="147.5" y="-119.5" font-family="Helvetica,sans-Serif" font-size="10.00">stddef.h</text>
</a>
</g>
</g>
<!-- Node4&#45;&gt;Node7 -->
<g id="edge6" class="edge">
<title>Node4&#45;&gt;Node7</title>
<path fill="none" stroke="midnightblue" d="M200.38,-168.32C190.97,-160.26 176.76,-148.08 165.43,-138.37"/>
<polygon fill="midnightblue" stroke="midnightblue" points="167.68,-135.68 157.81,-131.83 163.12,-141 167.68,-135.68"/>
</g>
<!-- Node8 -->
<g id="node8" class="node">
<title>Node8</title>
<g id="a_node8"><a xlink:title=" ">
<polygon fill="white" stroke="#bfbfbf" points="193.5,-112.5 193.5,-131.5 255.5,-131.5 255.5,-112.5 193.5,-112.5"/>
<text text-anchor="middle" x="224.5" y="-119.5" font-family="Helvetica,sans-Serif" font-size="10.00">stdbool.h</text>
</a>
</g>
</g>
<!-- Node4&#45;&gt;Node8 -->
<g id="edge7" class="edge">
<title>Node4&#45;&gt;Node8</title>
<path fill="none" stroke="midnightblue" d="M212.81,-168.08C214.67,-160.93 217.34,-150.64 219.65,-141.69"/>
<polygon fill="midnightblue" stroke="midnightblue" points="223.11,-142.31 222.23,-131.75 216.33,-140.55 223.11,-142.31"/>
</g>
<!-- Node9&#45;&gt;Node5 -->
<g id="edge9" class="edge">
<title>Node9&#45;&gt;Node5</title>
<path fill="none" stroke="midnightblue" d="M335.77,-168.08C336.56,-141.95 338.87,-65.21 339.94,-29.58"/>
<polygon fill="midnightblue" stroke="midnightblue" points="343.44,-29.67 340.24,-19.57 336.44,-29.46 343.44,-29.67"/>
</g>
<!-- Node10 -->
<g id="node10" class="node">
<title>Node10</title>
<g id="a_node10"><a xlink:title=" ">
<polygon fill="white" stroke="#bfbfbf" points="441,-0.5 441,-19.5 494,-19.5 494,-0.5 441,-0.5"/>
<text text-anchor="middle" x="467.5" y="-7.5" font-family="Helvetica,sans-Serif" font-size="10.00">graph.h</text>
</a>
</g>
</g>
<!-- Node9&#45;&gt;Node10 -->
<g id="edge10" class="edge">
<title>Node9&#45;&gt;Node10</title>
<path fill="none" stroke="midnightblue" d="M360.61,-168.45C380.06,-160.97 406.9,-148.67 426.5,-132 449.8,-112.18 456.94,-105.05 466.5,-76 471.41,-61.07 471.28,-43.16 470.13,-29.92"/>
<polygon fill="midnightblue" stroke="midnightblue" points="473.57,-29.22 468.97,-19.68 466.62,-30.01 473.57,-29.22"/>
</g>
<!-- Node11 -->
<g id="node11" class="node">
<title>Node11</title>
<g id="a_node11"><a xlink:href="ham_8h.html" target="_top" xlink:title="Ham API.">
<polygon fill="white" stroke="black" points="370,-112.5 370,-131.5 417,-131.5 417,-112.5 370,-112.5"/>
<text text-anchor="middle" x="393.5" y="-119.5" font-family="Helvetica,sans-Serif" font-size="10.00">ham.h</text>
</a>
</g>
</g>
<!-- Node9&#45;&gt;Node11 -->
<g id="edge11" class="edge">
<title>Node9&#45;&gt;Node11</title>
<path fill="none" stroke="midnightblue" d="M344.82,-168.32C353.39,-160.34 366.31,-148.31 376.69,-138.65"/>
<polygon fill="midnightblue" stroke="midnightblue" points="379.08,-141.21 384.01,-131.83 374.31,-136.09 379.08,-141.21"/>
</g>
<!-- Node11&#45;&gt;Node5 -->
<g id="edge12" class="edge">
<title>Node11&#45;&gt;Node5</title>
<path fill="none" stroke="midnightblue" d="M389.34,-112.37C380.67,-94.38 360.52,-52.55 348.99,-28.63"/>
<polygon fill="midnightblue" stroke="midnightblue" points="352.13,-27.08 344.64,-19.59 345.83,-30.12 352.13,-27.08"/>
</g>
<!-- Node11&#45;&gt;Node10 -->
<g id="edge13" class="edge">
<title>Node11&#45;&gt;Node10</title>
<path fill="none" stroke="midnightblue" d="M408.23,-112.5C420.7,-104.57 438.15,-91.64 448.5,-76 457.73,-62.06 462.57,-43.55 465.04,-29.85"/>
<polygon fill="midnightblue" stroke="midnightblue" points="468.55,-30.1 466.62,-19.68 461.63,-29.03 468.55,-30.1"/>
</g>
<!-- Node12 -->
<g id="node12" class="node">
<title>Node12</title>
<g id="a_node12"><a xlink:href="motif_8h.html" target="_top" xlink:title="Motif API.">
<polygon fill="white" stroke="black" points="388,-56.5 388,-75.5 439,-75.5 439,-56.5 388,-56.5"/>
<text text-anchor="middle" x="413.5" y="-63.5" font-family="Helvetica,sans-Serif" font-size="10.00">motif.h</text>
</a>
</g>
</g>
<!-- Node11&#45;&gt;Node12 -->
<g id="edge14" class="edge">
<title>Node11&#45;&gt;Node12</title>
<path fill="none" stroke="midnightblue" d="M396.8,-112.08C399.48,-104.85 403.35,-94.41 406.69,-85.4"/>
<polygon fill="midnightblue" stroke="midnightblue" points="410.07,-86.34 410.26,-75.75 403.5,-83.91 410.07,-86.34"/>
</g>
<!-- Node12&#45;&gt;Node5 -->
<g id="edge15" class="edge">
<title>Node12&#45;&gt;Node5</title>
<path fill="none" stroke="midnightblue" d="M401.77,-56.32C390.66,-48.11 373.76,-35.6 360.52,-25.81"/>
<polygon fill="midnightblue" stroke="midnightblue" points="362.56,-22.97 352.44,-19.83 358.4,-28.59 362.56,-22.97"/>
</g>
<!-- Node12&#45;&gt;Node10 -->
<g id="edge16" class="edge">
<title>Node12&#45;&gt;Node10</title>
<path fill="none" stroke="midnightblue" d="M422.42,-56.08C430.28,-48.22 441.93,-36.57 451.42,-27.08"/>
<polygon fill="midnightblue" stroke="midnightblue" points="454.15,-29.3 458.75,-19.75 449.2,-24.35 454.15,-29.3"/>
</g>
</g>
</svg>
