<?xml version="1.0" encoding="UTF-8" standalone="no"?>
<!DOCTYPE svg PUBLIC "-//W3C//DTD SVG 1.1//EN"
 "http://www.w3.org/Graphics/SVG/1.1/DTD/svg11.dtd">
<!-- Generated by graphviz version 2.43.0 (0)
 -->
<!-- Title: worksteal_scheduler_run Pages: 1 -->
<svg width="486pt" height="85pt"
 viewBox="0.00 0.00 486.00 85.00" xmlns="http://www.w3.org/2000/svg" xmlns:xlink="http://www.w3.org/1999/xlink">
<g id="graph0" class="graph" transform="scale(1 1) rotate(0) translate(4 81)">
<title>worksteal_scheduler_run</title>
<polygon fill="white" stroke="transparent" points="-4,4 -4,-81 482,-81 482,4 -4,4"/>
<!-- Node1 -->
<g id="node1" class="node">
<title>Node1</title>
<g id="a_node1"><a xlink:title=" ">
<polygon fill="#bfbfbf" stroke="black" points="0,-38.5 0,-57.5 138,-57.5 138,-38.5 0,-38.5"/>
<text text-anchor="middle" x="69" y="-45.5" font-family="Helvetica,sans-Serif" font-size="10.00">worksteal_scheduler_run</text>
</a>
</g>
</g>
<!-- Node2 -->
<g id="node2" class="node">
<title>Node2</title>
<g id="a_node2"><a xlink:href="worksteal__scheduler_8c.html#a0aba9f2a86f843df4efe039a4a2c58e7" target="_top" xlink:title=" ">
<polygon fill="white" stroke="black" points="179.5,-57.5 179.5,-76.5 254.5,-76.5 254.5,-57.5 179.5,-57.5"/>
<text text-anchor="middle" x="217" y="-64.5" font-family="Helvetica,sans-Serif" font-size="10.00">queue_push</text>
</a>
</g>
</g>
<!-- Node1&#45;&gt;Node2 -->
<g id="edge1" class="edge">
<title>Node1&#45;&gt;Node2</title>
<path fill="none" stroke="midnightblue" d="M138.3,-56.89C148.76,-58.25 159.36,-59.63 169.22,-60.91"/>
<polygon fill="midnightblue" stroke="midnightblue" points="168.82,-64.39 179.19,-62.21 169.72,-57.45 168.82,-64.39"/>
</g>
<!-- Node3 -->
<g id="node3" class="node">
<title>Node3</title>
<g id="a_node3"><a xlink:href="worksteal__scheduler_8c.html#abffa46e078841b47bff74081ff933209" target="_top" xlink:title=" ">
<polygon fill="white" stroke="black" points="174,-19.5 174,-38.5 260,-38.5 260,-19.5 174,-19.5"/>
<text text-anchor="middle" x="217" y="-26.5" font-family="Helvetica,sans-Serif" font-size="10.00">worker_thread</text>
</a>
</g>
</g>
<!-- Node1&#45;&gt;Node3 -->
<g id="edge2" class="edge">
<title>Node1&#45;&gt;Node3</title>
<path fill="none" stroke="midnightblue" d="M138.3,-39.11C146.95,-37.99 155.69,-36.85 164.03,-35.76"/>
<polygon fill="midnightblue" stroke="midnightblue" points="164.51,-39.23 173.98,-34.47 163.61,-32.29 164.51,-39.23"/>
</g>
<!-- Node4 -->
<g id="node4" class="node">
<title>Node4</title>
<g id="a_node4"><a xlink:href="worksteal__scheduler_8c.html#a7a9323983377139866ee226539c2e382" target="_top" xlink:title=" ">
<polygon fill="white" stroke="black" points="296,-38.5 296,-57.5 366,-57.5 366,-38.5 296,-38.5"/>
<text text-anchor="middle" x="331" y="-45.5" font-family="Helvetica,sans-Serif" font-size="10.00">queue_pop</text>
</a>
</g>
</g>
<!-- Node3&#45;&gt;Node4 -->
<g id="edge3" class="edge">
<title>Node3&#45;&gt;Node4</title>
<path fill="none" stroke="midnightblue" d="M260.02,-36.13C268.41,-37.55 277.24,-39.05 285.7,-40.48"/>
<polygon fill="midnightblue" stroke="midnightblue" points="285.33,-43.97 295.77,-42.19 286.5,-37.07 285.33,-43.97"/>
</g>
<!-- Node5 -->
<g id="node5" class="node">
<title>Node5</title>
<g id="a_node5"><a xlink:href="worksteal__scheduler_8c.html#afa7812aae56eeaeb04ebbc260add6c2a" target="_top" xlink:title=" ">
<polygon fill="white" stroke="black" points="296,-0.5 296,-19.5 366,-19.5 366,-0.5 296,-0.5"/>
<text text-anchor="middle" x="331" y="-7.5" font-family="Helvetica,sans-Serif" font-size="10.00">steal_work</text>
</a>
</g>
</g>
<!-- Node3&#45;&gt;Node5 -->
<g id="edge4" class="edge">
<title>Node3&#45;&gt;Node5</title>
<path fill="none" stroke="midnightblue" d="M260.02,-21.87C268.41,-20.45 277.24,-18.95 285.7,-17.52"/>
<polygon fill="midnightblue" stroke="midnightblue" points="286.5,-20.93 295.77,-15.81 285.33,-14.03 286.5,-20.93"/>
</g>
<!-- Node6 -->
<g id="node6" class="node">
<title>Node6</title>
<g id="a_node6"><a xlink:href="worksteal__scheduler_8c.html#ae250bf9b4782fb601ec23b758f6ca2e4" target="_top" xlink:title=" ">
<polygon fill="white" stroke="black" points="402,-0.5 402,-19.5 478,-19.5 478,-0.5 402,-0.5"/>
<text text-anchor="middle" x="440" y="-7.5" font-family="Helvetica,sans-Serif" font-size="10.00">queue_steal</text>
</a>
</g>
</g>
<!-- Node5&#45;&gt;Node6 -->
<g id="edge5" class="edge">
<title>Node5&#45;&gt;Node6</title>
<path fill="none" stroke="midnightblue" d="M366.15,-10C374.24,-10 383.01,-10 391.57,-10"/>
<polygon fill="midnightblue" stroke="midnightblue" points="391.84,-13.5 401.84,-10 391.84,-6.5 391.84,-13.5"/>
</g>
</g>
</svg>
